<?xml version="1.0" standalone="no"?>
<!DOCTYPE svg PUBLIC "-//W3C//DTD SVG 20010904//EN"
 "http://www.w3.org/TR/2001/REC-SVG-20010904/DTD/svg10.dtd">
<svg version="1.0" xmlns="http://www.w3.org/2000/svg"
 width="510.000000pt" height="510.000000pt" viewBox="0 0 510.000000 510.000000"
 preserveAspectRatio="xMidYMid meet">
<metadata>
Created by potrace 1.14, written by Peter Selinger 2001-2017
</metadata>
<g transform="translate(0.000000,510.000000) scale(0.100000,-0.100000)"
fill="#000000" stroke="none">
<path d="M1450 4955 c-229 -36 -452 -167 -595 -348 -95 -120 -148 -230 -197
-407 -9 -34 -13 -376 -17 -1400 l-6 -1355 -22 -54 c-12 -30 -45 -91 -73 -136
-43 -71 -50 -90 -50 -134 0 -44 5 -56 33 -87 26 -28 42 -37 78 -41 96 -11 81
-30 465 585 192 306 368 578 391 603 55 59 143 106 235 125 201 41 339 178
367 364 30 196 -67 378 -248 464 -62 29 -73 31 -182 31 -113 0 -116 -1 -191
-38 -130 -64 -215 -179 -238 -321 -11 -71 -9 -97 17 -209 20 -89 14 -205 -15
-270 -12 -26 -49 -93 -84 -148 -90 -146 -123 -166 -179 -109 l-30 29 3 1013 3
1013 24 70 c43 129 88 204 181 296 69 69 103 94 170 127 163 80 115 76 955 80
525 2 763 0 795 -8 65 -16 115 -53 147 -107 l28 -48 5 -390 c3 -260 9 -398 17
-416 19 -42 63 -89 107 -112 40 -21 53 -22 431 -27 l390 -5 48 -28 c33 -19 56
-44 77 -80 l30 -52 0 -1011 c0 -973 -1 -1014 -20 -1088 -49 -194 -190 -363
-373 -450 -136 -65 -153 -66 -776 -66 l-560 0 -27 24 c-50 42 -41 69 91 280
65 103 138 208 162 232 55 54 146 99 242 119 189 39 321 175 352 363 22 135
-26 280 -125 377 -212 206 -566 145 -697 -121 -29 -59 -34 -79 -37 -163 -3
-67 1 -115 12 -157 20 -78 21 -185 1 -251 -10 -32 -145 -258 -370 -619 -325
-520 -355 -572 -355 -612 0 -62 23 -100 76 -123 50 -23 99 -18 138 12 14 11
62 79 107 152 95 153 109 170 158 194 33 17 89 18 771 23 727 6 736 6 809 28
312 95 545 315 645 610 47 137 47 153 44 1297 l-3 1080 -27 86 c-78 249 -116
299 -557 739 -383 383 -433 425 -587 497 -42 19 -120 47 -173 61 l-96 26 -805
2 c-636 2 -823 0 -890 -11z m261 -2078 c58 -39 81 -83 77 -148 -3 -37 -12 -66
-27 -88 l-24 -33 -17 52 c-10 29 -29 64 -43 77 -34 34 -109 53 -159 40 -21 -5
-41 -7 -44 -4 -15 15 44 89 91 115 35 20 109 14 146 -11z m1335 -836 c95 -43
126 -150 69 -237 -21 -33 -30 -30 -43 15 -29 94 -129 139 -234 105 -17 -5 -19
-3 -13 18 13 41 44 75 87 97 52 26 81 26 134 2z"/>
<path d="M2703 3505 c-76 -21 -123 -47 -185 -104 -62 -56 -101 -122 -123 -206
-20 -80 -19 -147 6 -252 24 -101 22 -180 -9 -259 -10 -27 -346 -573 -747
-1214 -401 -641 -739 -1183 -752 -1205 -61 -106 9 -225 124 -212 23 2 53 11
65 19 13 9 358 552 768 1208 410 656 764 1214 786 1239 61 67 133 106 252 135
118 29 177 60 242 126 86 88 126 207 117 342 -18 266 -284 453 -544 383z m159
-265 c72 -21 130 -114 114 -187 -15 -68 -66 -116 -66 -62 0 65 -89 139 -163
135 -23 -1 -54 -6 -69 -10 -27 -8 -27 -7 -17 21 19 56 90 109 149 112 8 1 31
-4 52 -9z"/>
</g>
</svg>
